<svg xmlns="http://www.w3.org/2000/svg" version="1.1" xmlns:xlink="http://www.w3.org/1999/xlink" width="724" height="582"><svg width="724" height="582" viewBox="0 0 724 582" xmlns="http://www.w3.org/2000/svg" fill-rule="evenodd" clip-rule="evenodd" stroke-linejoin="round" stroke-miterlimit="2">
  <path d="M205.594 197.898h322.661v108.263H205.594z"></path>
  <path d="M578.582 508.799h-72.323v72.686h72.323v-72.686zm-361.614 0h-72.323v72.686h72.323v-72.686zm361.614-290.742h72.323v145.371h-72.323v72.686h-74.229 1.906v72.685H216.968v-72.685h-72.323v-72.686H72.323V218.057h72.322v-73.163h72.323V72.686h72.323v72.685h144.645V72.686h72.323v72.685h72.323v72.686zM72.323 508.799V363.428H0v145.371h72.323zm650.904 0V363.428h-72.322v145.371h72.322zM289.423 290.742h-.132.132zm-72.455-72.685h72.323v72.685h-72.323v-72.685zm216.968 0h72.323v72.685h-72.323v-72.685zM578.582 0h-72.323v72.686h72.323V0zM216.968 0h-72.323v72.686h72.323V0z" fill="#ad47ff"></path>
  <path d="M144.645 363.428V218.057h72.323v-72.686h289.291v72.686h72.323v72.685l-.001.001v72.685h-72.322v72.686h-72.323V508.8H289.291v-72.686h-72.323v-72.686h-72.323zm144.646-72.686h-72.323v-72.685h72.323v72.685zm216.968 0h-72.323v-72.685h72.323v72.685z" fill="#c27bff"></path>
</svg><style>@media (prefers-color-scheme: light) { :root { filter: none; } }
@media (prefers-color-scheme: dark) { :root { filter: none; } }
</style></svg>